<svg xmlns="http://www.w3.org/2000/svg" xmlns:xlink="http://www.w3.org/1999/xlink" viewBox="0 0 218.45 188.11"><defs><style>.cls-1{fill:none;stroke-miterlimit:10;stroke:url(#未命名漸層_16);}.cls-10,.cls-2{font-size:11.25px;}.cls-2,.cls-3{fill:#231f20;font-family:SourceHanSansTC-Light-B5pc-H, Source Han Sans TC;}.cls-3{font-size:9.89px;}.cls-4{letter-spacing:0.02em;}.cls-5{letter-spacing:-0.02em;}.cls-6{letter-spacing:-0.02em;}.cls-7{letter-spacing:-0.01em;}.cls-8{letter-spacing:-0.02em;}.cls-9{fill:url(#未命名漸層_16-2);}.cls-10{fill:#f7f7f7;font-family:SourceHanSansTC-Medium-B5pc-H, Source Han Sans TC;}</style><linearGradient id="未命名漸層_16" x1="27.65" y1="181.69" x2="168.2" y2="181.69" gradientTransform="translate(-41.78 -45.49) rotate(-21.39)" gradientUnits="userSpaceOnUse"><stop offset="0" stop-color="#c9e8e2"/><stop offset="1" stop-color="#22569d"/></linearGradient><linearGradient id="未命名漸層_16-2" x1="66.64" y1="114.16" x2="183.02" y2="68.57" gradientTransform="matrix(1, 0, 0, 1, 0, 0)" xlink:href="#未命名漸層_16"/></defs><title>laung</title><g id="圖層_2" data-name="圖層 2"><g id="圖層_1-2" data-name="圖層 1"><polygon class="cls-1" points="117.14 12.46 63.31 33.54 40.16 86.51 61.25 140.33 114.22 163.48 168.04 142.4 191.19 89.43 170.1 35.6 117.14 12.46"/><text class="cls-2" transform="translate(93.55 9.9)">python</text><text class="cls-3" transform="translate(0 81.2)">node<tspan class="cls-4" x="23.03" y="0">.</tspan><tspan x="25.74" y="0">js</tspan></text><text class="cls-3" transform="translate(13.82 150.41)">ja<tspan class="cls-5" x="7.96" y="0">v</tspan><tspan x="12.58" y="0">ascri</tspan><tspan class="cls-6" x="33.47" y="0">p</tspan><tspan x="39.31" y="0">t</tspan></text><text class="cls-3" transform="translate(176.49 150.41)">SA<tspan class="cls-7" x="11.54" y="0">S</tspan><tspan x="17.14" y="0">S</tspan></text><text class="cls-3" transform="translate(105.48 177.74)">Pug</text><text class="cls-3" transform="translate(201.15 87.97)"><tspan class="cls-8">C</tspan><tspan class="cls-7" x="5.96" y="0">S</tspan><tspan x="11.57" y="0">S</tspan></text><text class="cls-3" transform="translate(35.82 35.34)">php</text><text class="cls-2" transform="translate(182.88 33.16)">html</text><polygon class="cls-9" points="70.56 44.67 115.68 28.67 170.1 35.6 191.19 89.43 168.04 142.4 115.68 157.62 73.89 132.67 56.56 84.67 70.56 44.67"/><text class="cls-10" transform="translate(101.46 90.15)">程式</text></g></g></svg>
