<svg xmlns="http://www.w3.org/2000/svg" xmlns:xlink="http://www.w3.org/1999/xlink" viewBox="0 0 267.91 200.78"><defs><style>.cls-1{fill:none;stroke-miterlimit:10;stroke:url(#未命名漸層_16);}.cls-18,.cls-2{font-size:11.25px;}.cls-2,.cls-4{fill:#231f20;font-family:SourceHanSansTC-Light-B5pc-H, Source Han Sans TC;}.cls-3{letter-spacing:0.02em;}.cls-4{font-size:9.89px;}.cls-5{letter-spacing:-0.01em;}.cls-6{letter-spacing:-0.02em;}.cls-7{letter-spacing:0em;}.cls-8{letter-spacing:0.04em;}.cls-9{letter-spacing:-0.01em;}.cls-10{letter-spacing:-0.02em;}.cls-11{letter-spacing:0.04em;}.cls-12{letter-spacing:-0.01em;}.cls-13{letter-spacing:-0.02em;}.cls-14{letter-spacing:-0.02em;}.cls-15{letter-spacing:0.02em;}.cls-16{letter-spacing:0em;}.cls-17{fill:url(#未命名漸層_16-2);}.cls-18{fill:#f7f7f7;font-family:SourceHanSansTC-Medium-B5pc-H, Source Han Sans TC;}</style><linearGradient id="未命名漸層_16" x1="56.41" y1="94.51" x2="196.97" y2="94.51" gradientTransform="translate(-25.74 52.72) rotate(-21.39)" gradientUnits="userSpaceOnUse"><stop offset="0" stop-color="#c9e8e2"/><stop offset="1" stop-color="#22569d"/></linearGradient><linearGradient id="未命名漸層_16-2" x1="66.5" y1="92.26" x2="191.9" y2="92.26" xlink:href="#未命名漸層_16"/></defs><title>science</title><g id="圖層_2" data-name="圖層 2"><g id="圖層_1-2" data-name="圖層 1"><polygon class="cls-1" points="128.15 19 74.33 40.08 51.18 93.05 72.26 146.87 125.23 170.02 179.05 148.94 202.2 95.97 181.12 42.15 128.15 19"/><text class="cls-2" transform="translate(91.9 9.9)">Biolo<tspan class="cls-3" x="26.47" y="0">g</tspan><tspan x="32.83" y="0">y</tspan></text><text class="cls-4" transform="translate(0 94.51)">Analyti<tspan class="cls-5" x="30.58" y="0">c</tspan><tspan x="35.4" y="0">al</tspan><tspan x="0" y="11.86">chemi</tspan><tspan class="cls-6" x="27.55" y="11.86">s</tspan><tspan class="cls-7" x="31.8" y="11.86">t</tspan><tspan class="cls-8" x="35.28" y="11.86">r</tspan><tspan class="cls-7" x="39.2" y="11.86">y</tspan></text><text class="cls-4" transform="translate(31.5 160.7)">O<tspan class="cls-9" x="7.18" y="0">r</tspan><tspan class="cls-10" x="10.62" y="0">g</tspan><tspan x="15.83" y="0">anic</tspan><tspan x="0" y="11.86">Chemi</tspan><tspan class="cls-6" x="28.82" y="11.86">s</tspan><tspan x="33.07" y="11.86">t</tspan><tspan class="cls-11" x="36.55" y="11.86">r</tspan><tspan x="40.46" y="11.86">y</tspan></text><text class="cls-4" transform="translate(187.5 164.29)">NGS</text><text class="cls-4" transform="translate(116.5 190.41)">16sRNA</text><text class="cls-4" transform="translate(209.5 109.7)">D<tspan class="cls-12" x="6.64" y="0">a</tspan><tspan class="cls-13" x="11.92" y="0">t</tspan><tspan class="cls-7" x="15.17" y="0">a analysis</tspan></text><text class="cls-4" transform="translate(5.5 39.7)">Biochemi<tspan class="cls-14" x="42.31" y="0">s</tspan><tspan class="cls-7" x="46.56" y="0">t</tspan><tspan class="cls-11" x="50.04" y="0">r</tspan><tspan x="53.96" y="0">y</tspan></text><text class="cls-2" transform="translate(193.9 39.7)">Molecular <tspan x="0" y="13.49">biolo</tspan><tspan class="cls-15" x="26.03" y="13.49">g</tspan><tspan class="cls-16" x="32.39" y="13.49">y</tspan></text><polygon class="cls-17" points="76.74 42.29 128.99 23.97 178.36 47.63 190.51 95.1 174.06 142.91 129.21 148.83 85.8 138.98 61.98 94.34 76.74 42.29"/><text class="cls-18" transform="translate(98.73 96.81)">生物資訊</text></g></g></svg>