<svg xmlns="http://www.w3.org/2000/svg"
  xmlns:xlink="http://www.w3.org/1999/xlink"
  viewBox="0 0 492.73 397.03"><defs>
  <style>.cls-1,.cls-21,.cls-25,.cls-27{fill:none;stroke-miterlimit:10;}.cls-1{stroke:url(#未命名漸層_16);}.cls-2,.cls-30{font-size:11.25px;}.cls-2,.cls-4{fill:#231f20;font-family:SourceHanSansTC-Light-B5pc-H, Source Han Sans TC;}.cls-3{letter-spacing:0.02em;}.cls-4{font-size:9.89px;}.cls-5{letter-spacing:-0.01em;}.cls-6{letter-spacing:-0.02em;}.cls-7{letter-spacing:0em;}.cls-8{letter-spacing:0.04em;}.cls-9{letter-spacing:-0.01em;}.cls-10{letter-spacing:-0.02em;}.cls-11{letter-spacing:0.04em;}.cls-12{letter-spacing:-0.01em;}.cls-13{letter-spacing:0em;}.cls-14{letter-spacing:-0.02em;}.cls-15{letter-spacing:-0.03em;}.cls-16{letter-spacing:-0.02em;}.cls-17{letter-spacing:-0.02em;}.cls-18{letter-spacing:0.02em;}.cls-19{letter-spacing:0em;}.cls-20{fill:url(#未命名漸層_16-2);}.cls-21{stroke:url(#未命名漸層_16-3);}.cls-22{letter-spacing:0.02em;}.cls-23{letter-spacing:-0.02em;}.cls-24{fill:url(#未命名漸層_16-4);}.cls-25{stroke:url(#未命名漸層_16-5);}.cls-26{letter-spacing:-0.02em;}.cls-27{stroke:url(#未命名漸層_16-6);}.cls-28{fill:url(#未命名漸層_16-7);}.cls-29{fill:url(#未命名漸層_16-8);}.cls-30{fill:#f7f7f7;font-family:SourceHanSansTC-Medium-B5pc-H, Source Han Sans TC;}</style><linearGradient id="未命名漸層_16" x1="56.41" y1="94.51" x2="196.97" y2="94.51" gradientTransform="translate(-25.74 52.72) rotate(-21.39)" gradientUnits="userSpaceOnUse"><stop offset="0" stop-color="#c9e8e2"/><stop offset="1" stop-color="#22569d"/></linearGradient><linearGradient id="未命名漸層_16-2" x1="66.5" y1="92.26" x2="191.9" y2="92.26" xlink:href="#未命名漸層_16"/><linearGradient id="未命名漸層_16-3" x1="295.65" y1="188.36" x2="436.21" y2="188.36" xlink:href="#未命名漸層_16"/><linearGradient id="未命名漸層_16-4" x1="334.65" y1="120.83" x2="451.02" y2="75.24" gradientTransform="matrix(1, 0, 0, 1, 0, 0)" xlink:href="#未命名漸層_16"/><linearGradient id="未命名漸層_16-5" x1="215.81" y1="372.91" x2="356.37" y2="372.91" xlink:href="#未命名漸層_16"/><linearGradient id="未命名漸層_16-6" x1="64.24" y1="301.19" x2="194.76" y2="301.19" gradientTransform="matrix(1, 0, 0, 1, 0, 0)" xlink:href="#未命名漸層_16"/><linearGradient id="未命名漸層_16-7" x1="91.63" y1="303.56" x2="174.96" y2="303.56" gradientTransform="matrix(1, 0, 0, 1, 0, 0)" xlink:href="#未命名漸層_16"/><linearGradient id="未命名漸層_16-8" x1="325.93" y1="319.5" x2="443" y2="273.64" gradientTransform="matrix(1, 0, 0, 1, 0, 0)" xlink:href="#未命名漸層_16"/></defs><title>sikill-group</title><g id="圖層_2" data-name="圖層 2"><g id="圖層_1-2" data-name="圖層 1"><polygon class="cls-1" points="128.15 19 74.33 40.08 51.18 93.05 72.26 146.87 125.23 170.02 179.05 148.94 202.2 95.97 181.12 42.15 128.15 19"/><text class="cls-2" transform="translate(91.9 9.9)">Biolo<tspan class="cls-3" x="26.47" y="0">g</tspan><tspan x="32.83" y="0">y</tspan></text><text class="cls-4" transform="translate(0 94.51)">Analyti<tspan class="cls-5" x="30.58" y="0">c</tspan><tspan x="35.4" y="0">al</tspan><tspan x="0" y="11.86">chemi</tspan><tspan class="cls-6" x="27.55" y="11.86">s</tspan><tspan class="cls-7" x="31.8" y="11.86">t</tspan><tspan class="cls-8" x="35.28" y="11.86">r</tspan><tspan class="cls-7" x="39.2" y="11.86">y</tspan></text><text class="cls-4" transform="translate(31.5 160.7)">O<tspan class="cls-9" x="7.18" y="0">r</tspan><tspan class="cls-10" x="10.62" y="0">g</tspan><tspan x="15.83" y="0">anic</tspan><tspan x="0" y="11.86">Chemi</tspan><tspan class="cls-6" x="28.82" y="11.86">s</tspan><tspan x="33.07" y="11.86">t</tspan><tspan class="cls-11" x="36.55" y="11.86">r</tspan><tspan x="40.46" y="11.86">y</tspan></text><text class="cls-4" transform="translate(187.5 164.29)">NGS</text><text class="cls-4" transform="translate(116.5 190.41)">16sRNA</text><text class="cls-4" transform="translate(108.73 229.96)"><tspan class="cls-12">F</tspan><tspan class="cls-13" x="5.13" y="0">on</tspan><tspan class="cls-14" x="16.87" y="0">t</tspan><tspan x="20.11" y="0">-End </tspan><tspan x="0" y="11.86">Engineer</tspan></text><text class="cls-4" transform="translate(28.4 374.8)">Bac<tspan class="cls-15" x="16.69" y="0">k</tspan><tspan class="cls-7" x="21.55" y="0">-End </tspan><tspan x="0" y="11.86">Engineer</tspan></text><text class="cls-4" transform="translate(180.15 374.8)">D<tspan class="cls-12" x="6.64" y="0">a</tspan><tspan class="cls-14" x="11.92" y="0">t</tspan><tspan class="cls-7" x="15.17" y="0">a</tspan><tspan class="cls-16" x="20.57" y="0">b</tspan><tspan x="26.37" y="0">ase</tspan></text><text class="cls-4" transform="translate(209.5 109.7)">D<tspan class="cls-12" x="6.64" y="0">a</tspan><tspan class="cls-14" x="11.92" y="0">t</tspan><tspan class="cls-7" x="15.17" y="0">a analysis</tspan></text><text class="cls-4" transform="translate(5.5 39.7)">Biochemi<tspan class="cls-17" x="42.31" y="0">s</tspan><tspan class="cls-7" x="46.56" y="0">t</tspan><tspan class="cls-11" x="50.04" y="0">r</tspan><tspan x="53.96" y="0">y</tspan></text><text class="cls-2" transform="translate(193.9 39.7)">Molecular <tspan x="0" y="13.49">biolo</tspan><tspan class="cls-18" x="26.03" y="13.49">g</tspan><tspan class="cls-19" x="32.39" y="13.49">y</tspan></text><polygon class="cls-20" points="76.74 42.29 128.99 23.97 178.36 47.63 190.51 95.1 174.06 142.91 129.21 148.83 85.8 138.98 61.98 94.34 76.74 42.29"/><polygon class="cls-21" points="385.14 19.12 331.32 40.2 308.17 93.17 329.25 147 382.22 170.15 436.04 149.06 459.19 96.09 438.11 42.27 385.14 19.12"/><text class="cls-2" transform="translate(361.55 16.56)">python</text><text class="cls-4" transform="translate(268 87.86)">node<tspan class="cls-22" x="23.03" y="0">.</tspan><tspan x="25.74" y="0">js</tspan></text><text class="cls-4" transform="translate(281.82 157.08)">ja<tspan class="cls-6" x="7.96" y="0">v</tspan><tspan x="12.58" y="0">ascri</tspan><tspan class="cls-23" x="33.47" y="0">p</tspan><tspan x="39.31" y="0">t</tspan></text><text class="cls-4" transform="translate(444.49 157.08)">SA<tspan class="cls-12" x="11.54" y="0">S</tspan><tspan x="17.14" y="0">S</tspan></text><text class="cls-4" transform="translate(373.49 184.41)">Pug</text><text class="cls-4" transform="translate(469.16 94.63)"><tspan class="cls-14">C</tspan><tspan class="cls-12" x="5.96" y="0">S</tspan><tspan x="11.57" y="0">S</tspan></text><text class="cls-4" transform="translate(303.82 42)">php</text><text class="cls-2" transform="translate(450.89 39.83)">html</text><polygon class="cls-24" points="338.56 51.34 383.68 35.34 438.11 42.27 459.19 96.09 436.04 149.06 383.68 164.29 341.9 139.34 324.56 91.34 338.56 51.34"/><polygon class="cls-25" points="378.11 220.07 324.29 241.16 301.14 294.13 322.23 347.95 375.19 371.1 429.02 350.01 452.17 297.05 431.08 243.22 378.11 220.07"/><text class="cls-2" transform="translate(354.53 215.27)">G<tspan class="cls-26" x="7.57" y="0">r</tspan><tspan x="11.34" y="0">aphic </tspan></text><text class="cls-4" transform="translate(268 292.82)">Visual</text><text class="cls-4" transform="translate(300.8 354.03)"><tspan class="cls-5">U</tspan><tspan x="6.86" y="0">X</tspan></text><text class="cls-4" transform="translate(437.46 358.03)">Web</text><text class="cls-4" transform="translate(462.13 295.59)">Layout</text><text class="cls-4" transform="translate(286.8 242.96)">In<tspan class="cls-12" x="8.55" y="0">t</tspan><tspan class="cls-7" x="11.9" y="0">erior</tspan></text><text class="cls-2" transform="translate(443.86 240.78)">Video</text><polygon class="cls-27" points="129.5 245.67 65.1 357.21 193.9 357.21 129.5 245.67"/><polygon class="cls-28" points="129.5 259.06 91.63 340.39 174.96 348.06 129.5 259.06"/><polygon class="cls-29" points="333.9 337.34 373.49 362.67 423.9 344 452.17 297.05 422.56 256 383.68 234 337.23 254 316.56 295.59 333.9 337.34"/><text class="cls-30" transform="translate(98.73 96.81)">生物資訊</text><text class="cls-30" transform="translate(108.73 318.31)">網頁設計</text><text class="cls-30" transform="translate(354.53 301.44)">視覺設計</text><text class="cls-30" transform="translate(369.46 96.81)">程式</text></g></g></svg>
