<svg xmlns="http://www.w3.org/2000/svg" xmlns:xlink="http://www.w3.org/1999/xlink" viewBox="0 0 279.06 844.17"><defs><style>.cls-1,.cls-21,.cls-25,.cls-27{fill:none;stroke-miterlimit:10;}.cls-1{stroke:url(#未命名漸層_16);}.cls-2,.cls-30{font-size:11.25px;}.cls-2,.cls-4{fill:#231f20;font-family:SourceHanSansTC-Light-B5pc-H, Source Han Sans TC;}.cls-3{letter-spacing:0.02em;}.cls-4{font-size:9.89px;}.cls-5{letter-spacing:-0.01em;}.cls-6{letter-spacing:-0.02em;}.cls-7{letter-spacing:0em;}.cls-8{letter-spacing:0.04em;}.cls-9{letter-spacing:-0.01em;}.cls-10{letter-spacing:-0.02em;}.cls-11{letter-spacing:0.04em;}.cls-12{letter-spacing:-0.01em;}.cls-13{letter-spacing:0em;}.cls-14{letter-spacing:-0.02em;}.cls-15{letter-spacing:-0.03em;}.cls-16{letter-spacing:-0.02em;}.cls-17{letter-spacing:-0.02em;}.cls-18{letter-spacing:0.02em;}.cls-19{letter-spacing:0em;}.cls-20{fill:url(#未命名漸層_16-2);}.cls-21{stroke:url(#未命名漸層_16-3);}.cls-22{letter-spacing:0.02em;}.cls-23{letter-spacing:-0.02em;}.cls-24{fill:url(#未命名漸層_7);}.cls-25{stroke:url(#未命名漸層_16-4);}.cls-26{letter-spacing:-0.02em;}.cls-27{stroke:url(#未命名漸層_16-5);}.cls-28{fill:url(#未命名漸層_16-6);}.cls-29{fill:url(#未命名漸層_16-7);}.cls-30{fill:#f7f7f7;font-family:SourceHanSansTC-Medium-B5pc-H, Source Han Sans TC;}</style><linearGradient id="未命名漸層_16" x1="-165.41" y1="1044.6" x2="-24.85" y2="1044.6" gradientTransform="translate(-165.74 -520.66) rotate(-21.39)" gradientUnits="userSpaceOnUse"><stop offset="0" stop-color="#c9e8e2"/><stop offset="1" stop-color="#22569d"/></linearGradient><linearGradient id="未命名漸層_16-2" x1="-155.32" y1="1042.36" x2="-29.92" y2="1042.36" xlink:href="#未命名漸層_16"/><linearGradient id="未命名漸層_16-3" x1="-14.61" y1="675.46" x2="125.94" y2="675.46" xlink:href="#未命名漸層_16"/><linearGradient id="未命名漸層_7" x1="73.34" y1="93.15" x2="207.97" y2="93.15" gradientUnits="userSpaceOnUse"><stop offset="0" stop-color="#c9e8e2"/><stop offset="1" stop-color="#22579e"/></linearGradient><linearGradient id="未命名漸層_16-4" x1="-262.5" y1="1282.96" x2="-121.94" y2="1282.96" xlink:href="#未命名漸層_16"/><linearGradient id="未命名漸層_16-5" x1="63.71" y1="287.27" x2="194.24" y2="287.27" gradientTransform="matrix(1, 0, 0, 1, 0, 0)" xlink:href="#未命名漸層_16"/><linearGradient id="未命名漸層_16-6" x1="91.1" y1="289.65" x2="174.43" y2="289.65" gradientTransform="matrix(1, 0, 0, 1, 0, 0)" xlink:href="#未命名漸層_16"/><linearGradient id="未命名漸層_16-7" x1="72.51" y1="767.94" x2="189.57" y2="722.09" gradientTransform="matrix(1, 0, 0, 1, 0, 0)" xlink:href="#未命名漸層_16"/></defs><title>skill_group_2</title><g id="圖層_2" data-name="圖層 2"><g id="圖層_1-2" data-name="圖層 1"><polygon class="cls-1" points="128.15 411.17 74.33 432.25 51.18 485.22 72.26 539.04 125.23 562.19 179.05 541.11 202.2 488.14 181.12 434.31 128.15 411.17"/><text class="cls-2" transform="translate(91.9 402.06)">Biolo<tspan class="cls-3" x="26.47" y="0">g</tspan><tspan x="32.83" y="0">y</tspan></text><text class="cls-4" transform="translate(0 486.68)">Analyti<tspan class="cls-5" x="30.58" y="0">c</tspan><tspan x="35.4" y="0">al</tspan><tspan x="0" y="11.86">chemi</tspan><tspan class="cls-6" x="27.55" y="11.86">s</tspan><tspan class="cls-7" x="31.8" y="11.86">t</tspan><tspan class="cls-8" x="35.28" y="11.86">r</tspan><tspan class="cls-7" x="39.2" y="11.86">y</tspan></text><text class="cls-4" transform="translate(31.5 552.87)">O<tspan class="cls-9" x="7.18" y="0">r</tspan><tspan class="cls-10" x="10.62" y="0">g</tspan><tspan x="15.83" y="0">anic</tspan><tspan x="0" y="11.86">Chemi</tspan><tspan class="cls-6" x="28.82" y="11.86">s</tspan><tspan x="33.07" y="11.86">t</tspan><tspan class="cls-11" x="36.55" y="11.86">r</tspan><tspan x="40.46" y="11.86">y</tspan></text><text class="cls-4" transform="translate(187.5 556.45)">NGS</text><text class="cls-4" transform="translate(116.5 582.58)">16sRNA</text><text class="cls-4" transform="translate(108.21 216.05)"><tspan class="cls-12">F</tspan><tspan class="cls-13" x="5.13" y="0">on</tspan><tspan class="cls-14" x="16.87" y="0">t</tspan><tspan x="20.11" y="0">-End </tspan><tspan x="0" y="11.86">Engineer</tspan></text><text class="cls-4" transform="translate(27.87 360.88)">Bac<tspan class="cls-15" x="16.69" y="0">k</tspan><tspan class="cls-7" x="21.55" y="0">-End </tspan><tspan x="0" y="11.86">Engineer</tspan></text><text class="cls-4" transform="translate(179.63 360.88)">D<tspan class="cls-12" x="6.64" y="0">a</tspan><tspan class="cls-14" x="11.92" y="0">t</tspan><tspan class="cls-7" x="15.17" y="0">a</tspan><tspan class="cls-16" x="20.57" y="0">b</tspan><tspan x="26.37" y="0">ase</tspan></text><text class="cls-4" transform="translate(220.65 488.98)">D<tspan class="cls-12" x="6.64" y="0">a</tspan><tspan class="cls-14" x="11.92" y="0">t</tspan><tspan class="cls-7" x="15.17" y="0">a analysis</tspan></text><text class="cls-4" transform="translate(5.5 431.87)">Biochemi<tspan class="cls-17" x="42.31" y="0">s</tspan><tspan class="cls-7" x="46.56" y="0">t</tspan><tspan class="cls-11" x="50.04" y="0">r</tspan><tspan x="53.96" y="0">y</tspan></text><text class="cls-2" transform="translate(193.9 431.87)">Molecular <tspan x="0" y="13.49">biolo</tspan><tspan class="cls-18" x="26.03" y="13.49">g</tspan><tspan class="cls-19" x="32.39" y="13.49">y</tspan></text><polygon class="cls-20" points="76.74 434.46 128.99 416.14 178.36 439.8 190.51 487.27 174.06 535.08 129.21 540.99 85.8 531.15 61.98 486.51 76.74 434.46"/><polygon class="cls-21" points="133.92 12.46 80.09 33.54 56.94 86.51 78.03 140.33 130.99 163.48 184.82 142.4 207.97 89.43 186.88 35.6 133.92 12.46"/><text class="cls-2" transform="translate(110.33 9.9)">python</text><text class="cls-4" transform="translate(16.78 81.2)">node<tspan class="cls-22" x="23.03" y="0">.</tspan><tspan x="25.74" y="0">js</tspan></text><text class="cls-4" transform="translate(30.6 150.41)">ja<tspan class="cls-6" x="7.96" y="0">v</tspan><tspan x="12.58" y="0">ascri</tspan><tspan class="cls-23" x="33.47" y="0">p</tspan><tspan x="39.31" y="0">t</tspan></text><text class="cls-4" transform="translate(193.26 150.41)">SA<tspan class="cls-12" x="11.54" y="0">S</tspan><tspan x="17.14" y="0">S</tspan></text><text class="cls-4" transform="translate(122.26 177.74)">Pug</text><text class="cls-4" transform="translate(217.93 87.97)"><tspan class="cls-14">C</tspan><tspan class="cls-12" x="5.96" y="0">S</tspan><tspan x="11.57" y="0">S</tspan></text><text class="cls-4" transform="translate(52.6 35.34)">php</text><text class="cls-2" transform="translate(199.66 33.16)">html</text><polygon class="cls-24" points="87.34 44.67 132.46 28.67 186.88 35.6 207.97 89.43 184.82 142.4 132.46 157.62 90.67 132.67 73.34 84.67 87.34 44.67"/><polygon class="cls-25" points="124.69 668.52 70.87 689.6 47.72 742.57 68.8 796.39 121.77 819.54 175.59 798.46 198.74 745.49 177.66 691.67 124.69 668.52"/><text class="cls-2" transform="translate(101.1 663.72)">G<tspan class="cls-26" x="7.57" y="0">r</tspan><tspan x="11.34" y="0">aphic </tspan></text><text class="cls-4" transform="translate(14.58 741.26)">Visual</text><text class="cls-4" transform="translate(47.37 802.47)"><tspan class="cls-5">U</tspan><tspan x="6.86" y="0">X</tspan></text><text class="cls-4" transform="translate(184.04 806.47)">Web</text><text class="cls-4" transform="translate(113.04 833.8)">UI</text><text class="cls-4" transform="translate(208.71 744.03)">Layout</text><text class="cls-4" transform="translate(33.37 691.4)">In<tspan class="cls-12" x="8.55" y="0">t</tspan><tspan class="cls-7" x="11.9" y="0">erior</tspan></text><text class="cls-2" transform="translate(190.43 689.22)">Video</text><polygon class="cls-27" points="128.97 231.75 64.58 343.29 193.37 343.29 128.97 231.75"/><polygon class="cls-28" points="128.97 245.15 91.1 326.48 174.43 334.15 128.97 245.15"/><polygon class="cls-29" points="80.47 785.78 120.07 811.11 170.47 792.45 198.74 745.49 169.14 704.45 130.26 682.45 83.81 702.45 63.14 744.03 80.47 785.78"/><text class="cls-30" transform="translate(98.73 488.98)">生物資訊</text><text class="cls-30" transform="translate(108.2 304.4)">網頁設計</text><text class="cls-30" transform="translate(101.1 749.88)">視覺設計</text><text class="cls-30" transform="translate(118.24 90.15)">程式</text></g></g></svg>