<svg xmlns="http://www.w3.org/2000/svg" xmlns:xlink="http://www.w3.org/1999/xlink" viewBox="0 0 224.72 190.35"><defs><style>.cls-1{fill:none;stroke-miterlimit:10;stroke:url(#未命名漸層_16);}.cls-2,.cls-9{font-size:11.25px;}.cls-2,.cls-4{fill:#231f20;font-family:SourceHanSansTC-Light-B5pc-H, Source Han Sans TC;}.cls-3{letter-spacing:-0.02em;}.cls-4{font-size:9.89px;}.cls-5{letter-spacing:-0.01em;}.cls-6{letter-spacing:-0.01em;}.cls-7{letter-spacing:0em;}.cls-8{fill:url(#未命名漸層_16-2);}.cls-9{fill:#f7f7f7;font-family:SourceHanSansTC-Medium-B5pc-H, Source Han Sans TC;}</style><linearGradient id="未命名漸層_16" x1="-52.19" y1="167.53" x2="88.36" y2="167.53" gradientTransform="translate(30.7 -59.18) rotate(-21.39)" gradientUnits="userSpaceOnUse"><stop offset="0" stop-color="#c9e8e2"/><stop offset="1" stop-color="#22569d"/></linearGradient><linearGradient id="未命名漸層_16-2" x1="57.93" y1="114.12" x2="174.99" y2="68.27" gradientTransform="matrix(1, 0, 0, 1, 0, 0)" xlink:href="#未命名漸層_16"/></defs><title>viso</title><g id="圖層_2" data-name="圖層 2"><g id="圖層_1-2" data-name="圖層 1"><polygon class="cls-1" points="110.11 14.7 56.29 35.78 33.14 88.75 54.22 142.57 107.19 165.72 161.01 144.63 184.16 91.67 163.08 37.84 110.11 14.7"/><text class="cls-2" transform="translate(86.52 9.9)">G<tspan class="cls-3" x="7.57" y="0">r</tspan><tspan x="11.34" y="0">aphic </tspan></text><text class="cls-4" transform="translate(0 87.44)">Visual</text><text class="cls-4" transform="translate(32.79 148.65)"><tspan class="cls-5">U</tspan><tspan x="6.86" y="0">X</tspan></text><text class="cls-4" transform="translate(169.46 152.65)">Web</text><text class="cls-4" transform="translate(98.46 179.98)">UI</text><text class="cls-4" transform="translate(194.12 90.21)">Layout</text><text class="cls-4" transform="translate(18.79 37.58)">In<tspan class="cls-6" x="8.55" y="0">t</tspan><tspan class="cls-7" x="11.9" y="0">erior</tspan></text><text class="cls-2" transform="translate(175.85 35.4)">Video</text><polygon class="cls-8" points="65.89 131.96 105.48 157.29 155.89 138.63 184.16 91.67 154.56 50.63 115.68 28.63 69.22 48.63 48.56 90.21 65.89 131.96"/><text class="cls-9" transform="translate(86.52 96.06)">視覺設計</text></g></g></svg>